<svg xmlns="http://www.w3.org/2000/svg" xmlns:xlink="http://www.w3.org/1999/xlink" width="512" height="546" viewBox="0 0 512 546">
  <defs>
    <filter id="hmu_" x="302" y="454" width="208" height="90" filterUnits="userSpaceOnUse">
      <feOffset dy="3" input="SourceAlpha"/>
      <feGaussianBlur stdDeviation="3" result="blur"/>
      <feFlood flood-opacity="0.161"/>
      <feComposite operator="in" in2="blur"/>
      <feComposite in="SourceGraphic"/>
    </filter>
    <linearGradient id="linear-gradient" x1="0.5" x2="0.5" y2="1" gradientUnits="objectBoundingBox">
      <stop offset="0" stop-color="#1f0"/>
      <stop offset="1" stop-color="#00cbff"/>
    </linearGradient>
    <linearGradient id="linear-gradient-2" x1="0.5" x2="0.5" y2="1" gradientUnits="objectBoundingBox">
      <stop offset="0" stop-color="#0ff91b"/>
      <stop offset="1" stop-color="#71d8ed"/>
    </linearGradient>
    <filter id="Path_1" x="372.182" y="305.975" width="55.845" height="80.675" filterUnits="userSpaceOnUse">
      <feOffset dy="3.013" input="SourceAlpha"/>
      <feGaussianBlur stdDeviation="3.013" result="blur-2"/>
      <feFlood flood-opacity="0.161"/>
      <feComposite operator="in" in2="blur-2"/>
      <feComposite in="SourceGraphic"/>
    </filter>
    <filter id="Path_2" x="384.422" y="322.376" width="55.845" height="80.675" filterUnits="userSpaceOnUse">
      <feOffset dy="3.013" input="SourceAlpha"/>
      <feGaussianBlur stdDeviation="3.013" result="blur-3"/>
      <feFlood flood-opacity="0.161"/>
      <feComposite operator="in" in2="blur-3"/>
      <feComposite in="SourceGraphic"/>
    </filter>
    <filter id="Welcome_to_my_GitHub_:p" x="159" y="136" width="225" height="37" filterUnits="userSpaceOnUse">
      <feOffset dy="3" input="SourceAlpha"/>
      <feGaussianBlur stdDeviation="3" result="blur-4"/>
      <feFlood flood-opacity="0.161"/>
      <feComposite operator="in" in2="blur-4"/>
      <feComposite in="SourceGraphic"/>
    </filter>
    <filter id="Hey_there_" x="25" y="60" width="463" height="103" filterUnits="userSpaceOnUse">
      <feOffset dy="3" input="SourceAlpha"/>
      <feGaussianBlur stdDeviation="3" result="blur-5"/>
      <feFlood flood-opacity="0.161"/>
      <feComposite operator="in" in2="blur-5"/>
      <feComposite in="SourceGraphic"/>
    </filter>
    <clipPath id="clip-hey-banner">
      <rect width="512" height="546"/>
    </clipPath>
  </defs>
  <g id="hey-banner" clip-path="url(#clip-hey-banner)">
    <g transform="matrix(1, 0, 0, 1, 0, 0)" filter="url(#hmu_)">
      <text id="hmu_2" data-name="hmu👇" transform="translate(311 518)" fill="#fff" font-size="54" font-family="Montserrat-Black, Montserrat" font-weight="800"><tspan x="0" y="0">hmu</tspan><tspan y="0" font-family="SegoeUIEmoji, Segoe UI Emoji" font-weight="400">👇</tspan></text>
    </g>
    <g id="Shapes" transform="translate(512.419 220.756) rotate(180)">
      <path id="Polygon_1" data-name="Polygon 1" d="M363,0,726,197H0Z" transform="translate(-62.13 -191.244) rotate(17)" fill="url(#linear-gradient)"/>
      <rect id="Rectangle_1" data-name="Rectangle 1" width="350" height="350" transform="matrix(0.891, -0.454, 0.454, 0.891, 133.044, -245.722)" fill="url(#linear-gradient-2)"/>
      <circle id="Ellipse_1" data-name="Ellipse 1" cx="175" cy="175" r="175" transform="translate(312.465 -36.138) rotate(76)" fill="url(#linear-gradient-2)"/>
    </g>
    <g id="Logo" transform="translate(379.91 322.27)">
      <circle id="Ellipse_2" data-name="Ellipse 2" cx="50" cy="50" r="50" transform="translate(-23.91 -20.27)" fill="#121212"/>
      <g transform="matrix(1, 0, 0, 1, -379.91, -322.27)" filter="url(#Path_1)">
        <path id="Path_1-2" data-name="Path 1" d="M11.707,0V58.533L23.413,43.9,0,14.633Z" transform="translate(396.37 312) rotate(15)" fill="url(#linear-gradient)"/>
      </g>
      <g transform="matrix(1, 0, 0, 1, -379.91, -322.27)" filter="url(#Path_2)">
        <path id="Path_2-2" data-name="Path 2" d="M11.707,0V58.533L23.413,43.9,0,14.633Z" transform="translate(408.61 328.4) rotate(15)" fill="url(#linear-gradient)"/>
      </g>
    </g>
    <g id="About" transform="translate(11 23)">
      <text id="Android_dev" data-name="Android dev" transform="matrix(0.891, -0.454, 0.454, 0.891, 4.522, 374.488)" fill="#fff" font-size="30" font-family="Montserrat-ExtraLight, Montserrat" font-weight="200"><tspan x="0" y="0">Android dev</tspan></text>
      <text id="Tech_enthusiast" data-name="Tech enthusiast" transform="matrix(0.891, -0.454, 0.454, 0.891, 19.522, 423.488)" fill="#fff" font-size="30" font-family="Montserrat-ExtraLight, Montserrat" font-weight="200"><tspan x="0" y="0">Tech enthusiast</tspan></text>
      <text id="Watch_too_much_Anime_" data-name="Watch too muchAnime " transform="matrix(0.891, -0.454, 0.454, 0.891, 44.522, 468.488)" fill="#fff" font-size="30" font-family="Montserrat-ExtraLight, Montserrat" font-weight="200"><tspan x="0" y="0">Watch too much</tspan><tspan x="0" y="37">Anime </tspan></text>
      <text id="About_me" data-name="About me" transform="matrix(0.891, -0.454, 0.454, 0.891, -4.732, 301.267)" fill="#fff" font-size="30" font-family="Montserrat-Bold, Montserrat" font-weight="700" opacity="0.5"><tspan x="0" y="0">About me</tspan></text>
    </g>
    <g transform="matrix(1, 0, 0, 1, 0, 0)" filter="url(#Welcome_to_my_GitHub_:p)">
      <text id="Welcome_to_my_GitHub_:p-2" data-name="Welcome to my GitHub :p" transform="translate(168 157)" fill="#fff" font-size="16" font-family="Montserrat-Regular, Montserrat"><tspan x="0" y="0">Welcome to my GitHub :p</tspan></text>
    </g>
    <g transform="matrix(1, 0, 0, 1, 0, 0)" filter="url(#Hey_there_)">
      <text id="Hey_there_2" data-name="Hey there 👋" transform="translate(34 135)" fill="#fff" font-size="64" font-family="Montserrat-Black, Montserrat" font-weight="800"><tspan x="0" y="0">Hey there </tspan><tspan y="0" font-family="SegoeUIEmoji, Segoe UI Emoji" font-weight="400">👋</tspan></text>
    </g>
  </g>
</svg>
